<svg width="56" height="35" viewBox="0 0 56 35" fill="none" xmlns="http://www.w3.org/2000/svg">
<path d="M22.4868 15.6826C25.5691 14.2094 27.1781 11.9801 27.1781 8.51011C27.1781 1.66713 22.0798 0 16.1963 0H0V34.3506H16.6519C22.8939 34.3506 28.758 31.3556 28.758 24.3769C28.758 20.0637 26.7128 16.8748 22.4868 15.6826ZM7.55054 5.86403H14.6358C17.3595 5.86403 19.8117 6.62974 19.8117 9.78953C19.8117 12.707 17.9022 13.8798 15.2077 13.8798H7.55054V5.86403ZM15.6245 28.5156H7.55054V19.0557H15.7796C19.1041 19.0557 21.2074 20.4417 21.2074 23.9601C21.2074 27.4301 18.697 28.5156 15.6245 28.5156ZM50.3725 5.18554H36.4442V1.80282H50.3725V5.18554ZM55.8294 22.2736C55.8294 14.9169 51.5259 8.7815 43.7233 8.7815C36.1437 8.7815 30.997 14.4808 30.997 21.9441C30.997 29.6884 35.8723 35 43.7233 35C49.6649 35 53.5129 32.3248 55.3642 26.6353H49.3354C48.686 28.758 46.0108 29.8823 43.9366 29.8823C39.9335 29.8823 37.8302 27.5367 37.8302 23.553H55.7713C55.8003 23.1459 55.8294 22.7098 55.8294 22.2736ZM37.8399 19.2495C38.0629 15.9831 40.234 13.938 43.5101 13.938C46.9413 13.938 48.6666 15.954 48.9574 19.2495H37.8399Z" fill="#F1F1F1"/>
</svg>
